<svg width="260" height="264" viewBox="0 0 260 264" fill="none" xmlns="http://www.w3.org/2000/svg">
<path d="M65.8869 124.653L0 101.85L131.774 0L65.8869 124.653Z" fill="#00BBEF"/>
<path d="M65.8869 124.653L0 101.85L131.774 0L65.8869 124.653Z" fill="#BBEFFF"/>
<path d="M131.774 124.653H65.8869L131.774 0L195.887 124.653H131.774Z" fill="#00BBEF"/>
<path d="M260 101.85L195.887 124.653L131.774 0L195.887 50.9251L260 101.85Z" fill="#0059DD"/>
<path d="M65.8869 124.653L0 101.85L131.774 264L65.8869 124.653Z" fill="#00BBEF"/>
<path d="M131.774 124.653H65.8869L131.774 264L195.887 124.653H131.774Z" fill="#0059DD"/>
<path d="M260 101.85L195.887 124.653L131.774 264L260 101.85Z" fill="#360086"/>
</svg>
